# xmcd
#
# Track frame offsets: 
#        150
#        16376
#        36850
#        50692
#        69719
#        86880
#        97042
#        114920
#        127112
#        143425
#        157895
#        173236
#        188865
#        202234
#        216288
#        230008
#        248886
#
# Disc length: 3544 seconds
#
# Revision: 0
# Processed by: cddbd v1.5.2PL0 Copyright (c) Steve Scherf et al.
# Submitted via: ExactAudioCopy v0.99pb3
#
DISCID=fb0dd611
DTITLE=Various Artist - Baby I'm Yours
DYEAR=2007
DGENRE=DC Baby
TTITLE0=The Tacticians - London's Alright
TTITLE1=Kill Electric - Lately
TTITLE2=The Distance - Self Help
TTITLE3=The Rebecas - Rebeca Said
TTITLE4=Alphaspin - Sunday Drivers
TTITLE5=Greyhound Green - Faces
TTITLE6=Proxy - Jet Lag
TTITLE7=Daddy Long Legs - Soup
TTITLE8=Via Satellite - So Excited
TTITLE9=English Electric - The Passion
TTITLE10=The Goodbyes - Million Watts
TTITLE11=The Lygers - This Little Place
TTITLE12=The Epitones - Poor Old Man
TTITLE13=The Dirty Feel - Talk In The City
TTITLE14=Beeches - Boat 97
TTITLE15=The Red Stars - Vanessa Says
TTITLE16=The Kissing Time - A Day Like This
EXTD=
EXTT0=
EXTT1=
EXTT2=
EXTT3=
EXTT4=
EXTT5=
EXTT6=
EXTT7=
EXTT8=
EXTT9=
EXTT10=
EXTT11=
EXTT12=
EXTT13=
EXTT14=
EXTT15=
EXTT16=
PLAYORDER=
